<svg xmlns="http://www.w3.org/2000/svg" width="14" height="14" viewBox="0 0 14 14" fill="none"><path transform="translate(1.167 2.333)" d="M 1.167 0 L 1.167 0.583 L 10.5 0.583 L 10.5 0 L 10.5 -0.583 L 1.167 -0.583 L 1.167 0 Z M 10.5 0 L 10.5 0.583 C 10.822 0.583 11.083 0.845 11.083 1.167 L 11.667 1.167 L 12.25 1.167 C 12.25 0.2 11.466 -0.583 10.5 -0.583 L 10.5 0 Z M 11.667 1.167 L 11.083 1.167 L 11.083 6.417 L 11.667 6.417 L 12.25 6.417 L 12.25 1.167 L 11.667 1.167 Z M 11.667 6.417 L 11.083 6.417 C 11.083 6.739 10.822 7 10.5 7 L 10.5 7.583 L 10.5 8.167 C 11.466 8.167 12.25 7.383 12.25 6.417 L 11.667 6.417 Z M 10.5 7.583 L 10.5 7 L 1.167 7 L 1.167 7.583 L 1.167 8.167 L 10.5 8.167 L 10.5 7.583 Z M 1.167 7.583 L 1.167 7 C 0.845 7 0.583 6.739 0.583 6.417 L 0 6.417 L -0.583 6.417 C -0.583 7.383 0.2 8.167 1.167 8.167 L 1.167 7.583 Z M 0 6.417 L 0.583 6.417 L 0.583 1.167 L 0 1.167 L -0.583 1.167 L -0.583 6.417 L 0 6.417 Z M 0 1.167 L 0.583 1.167 C 0.583 0.845 0.845 0.583 1.167 0.583 L 1.167 0 L 1.167 -0.583 C 0.2 -0.583 -0.583 0.2 -0.583 1.167 L 0 1.167 Z" fill="rgb(18,102,181)" fill-rule="nonzero"></path><path transform="translate(5.833 5.25)" d="M 0 0 L 2.333 1.458 L 0 2.917 L 0 0 Z" fill="rgb(18,102,181)" fill-rule="nonzero"></path><path transform="translate(4.667 12.833)" d="M 0 -0.583 C -0.322 -0.583 -0.583 -0.322 -0.583 0 C -0.583 0.322 -0.322 0.583 0 0.583 L 0 0 L 0 -0.583 Z M 4.667 0.583 C 4.989 0.583 5.25 0.322 5.25 0 C 5.25 -0.322 4.989 -0.583 4.667 -0.583 L 4.667 0 L 4.667 0.583 Z M 0 0 L 0 0.583 L 4.667 0.583 L 4.667 0 L 4.667 -0.583 L 0 -0.583 L 0 0 Z" fill="rgb(18,102,181)" fill-rule="nonzero"></path></svg>