<svg xmlns="http://www.w3.org/2000/svg" width="14" height="14" viewBox="0 0 14 14" fill="none"><path transform="translate(1.75 2.333)" d="M 0.875 0 L 0.875 0.583 L 6.708 0.583 L 6.708 0 L 6.708 -0.583 L 0.875 -0.583 L 0.875 0 Z M 6.708 0 L 6.708 0.583 C 6.869 0.583 7 0.714 7 0.875 L 7.583 0.875 L 8.167 0.875 C 8.167 0.07 7.514 -0.583 6.708 -0.583 L 6.708 0 Z M 7.583 0.875 L 7 0.875 L 7 2.625 L 7.583 2.625 L 8.167 2.625 L 8.167 0.875 L 7.583 0.875 Z M 7.583 2.625 L 7 2.625 C 7 2.786 6.869 2.917 6.708 2.917 L 6.708 3.5 L 6.708 4.083 C 7.514 4.083 8.167 3.43 8.167 2.625 L 7.583 2.625 Z M 6.708 3.5 L 6.708 2.917 L 0.875 2.917 L 0.875 3.5 L 0.875 4.083 L 6.708 4.083 L 6.708 3.5 Z M 0.875 3.5 L 0.875 2.917 C 0.714 2.917 0.583 2.786 0.583 2.625 L 0 2.625 L -0.583 2.625 C -0.583 3.43 0.07 4.083 0.875 4.083 L 0.875 3.5 Z M 0 2.625 L 0.583 2.625 L 0.583 0.875 L 0 0.875 L -0.583 0.875 L -0.583 2.625 L 0 2.625 Z M 0 0.875 L 0.583 0.875 C 0.583 0.714 0.714 0.583 0.875 0.583 L 0.875 0 L 0.875 -0.583 C 0.07 -0.583 -0.583 0.07 -0.583 0.875 L 0 0.875 Z" fill="rgb(90,158,47)" fill-rule="nonzero"></path><path transform="translate(5.833 4.083)" d="M 3.5 -0.583 C 3.178 -0.583 2.917 -0.322 2.917 0 C 2.917 0.322 3.178 0.583 3.5 0.583 L 3.5 0 L 3.5 -0.583 Z M 4.958 0 L 4.958 -0.583 L 4.958 0 Z M -0.583 5.542 C -0.583 5.864 -0.322 6.125 0 6.125 C 0.322 6.125 0.583 5.864 0.583 5.542 L 0 5.542 L -0.583 5.542 Z M 3.5 0 L 3.5 0.583 L 4.958 0.583 L 4.958 0 L 4.958 -0.583 L 3.5 -0.583 L 3.5 0 Z M 4.958 0 L 4.958 0.583 C 5.19 0.583 5.413 0.676 5.577 0.84 L 5.99 0.427 L 6.402 0.015 C 6.019 -0.368 5.5 -0.583 4.958 -0.583 L 4.958 0 Z M 5.99 0.427 L 5.577 0.84 C 5.741 1.004 5.833 1.226 5.833 1.458 L 6.417 1.458 L 7 1.458 C 7 0.917 6.785 0.398 6.402 0.015 L 5.99 0.427 Z M 6.417 1.458 L 5.833 1.458 L 5.833 2.042 L 6.417 2.042 L 7 2.042 L 7 1.458 L 6.417 1.458 Z M 6.417 2.042 L 5.833 2.042 C 5.833 2.274 5.741 2.496 5.577 2.66 L 5.99 3.073 L 6.402 3.485 C 6.785 3.102 7 2.583 7 2.042 L 6.417 2.042 Z M 5.99 3.073 L 5.577 2.66 C 5.413 2.824 5.19 2.917 4.958 2.917 L 4.958 3.5 L 4.958 4.083 C 5.5 4.083 6.019 3.868 6.402 3.485 L 5.99 3.073 Z M 4.958 3.5 L 4.958 2.917 L 1.167 2.917 L 1.167 3.5 L 1.167 4.083 L 4.958 4.083 L 4.958 3.5 Z M 1.167 3.5 L 1.167 2.917 C 0.703 2.917 0.257 3.101 -0.071 3.429 L 0.342 3.842 L 0.754 4.254 C 0.864 4.145 1.012 4.083 1.167 4.083 L 1.167 3.5 Z M 0.342 3.842 L -0.071 3.429 C -0.399 3.757 -0.583 4.203 -0.583 4.667 L 0 4.667 L 0.583 4.667 C 0.583 4.512 0.645 4.364 0.754 4.254 L 0.342 3.842 Z M 0 4.667 L -0.583 4.667 L -0.583 5.542 L 0 5.542 L 0.583 5.542 L 0.583 4.667 L 0 4.667 Z" fill="rgb(90,158,47)" fill-rule="nonzero"></path><path transform="translate(4.958 10.5)" d="M 0.583 0 L 0.583 0.583 L 1.167 0.583 L 1.167 0 L 1.167 -0.583 L 0.583 -0.583 L 0.583 0 Z M 1.167 0 L 1.167 0.583 L 1.75 0.583 L 2.333 0.583 C 2.333 -0.061 1.811 -0.583 1.167 -0.583 L 1.167 0 Z M 1.75 0.583 L 1.167 0.583 L 1.167 1.458 L 1.75 1.458 L 2.333 1.458 L 2.333 0.583 L 1.75 0.583 Z M 1.75 1.458 L 1.167 1.458 L 1.167 2.042 L 1.167 2.625 C 1.811 2.625 2.333 2.103 2.333 1.458 L 1.75 1.458 Z M 1.167 2.042 L 1.167 1.458 L 0.583 1.458 L 0.583 2.042 L 0.583 2.625 L 1.167 2.625 L 1.167 2.042 Z M 0.583 2.042 L 0.583 1.458 L 0 1.458 L -0.583 1.458 C -0.583 2.103 -0.061 2.625 0.583 2.625 L 0.583 2.042 Z M 0 1.458 L 0.583 1.458 L 0.583 0.583 L 0 0.583 L -0.583 0.583 L -0.583 1.458 L 0 1.458 Z M 0 0.583 L 0.583 0.583 L 0.583 0 L 0.583 -0.583 C -0.061 -0.583 -0.583 -0.061 -0.583 0.583 L 0 0.583 Z" fill="rgb(90,158,47)" fill-rule="nonzero"></path></svg>