<svg xmlns="http://www.w3.org/2000/svg" width="14" height="14" viewBox="0 0 14 14" fill="none"><path transform="translate(1.75 3.5)" d="M 0 2.917 L -0.209 2.372 C -0.435 2.459 -0.583 2.675 -0.583 2.917 L 0 2.917 Z M 0 4.083 L -0.583 4.083 C -0.583 4.325 -0.435 4.541 -0.209 4.628 L 0 4.083 Z M 7.583 7 L 7.374 7.544 C 7.553 7.613 7.755 7.59 7.914 7.481 C 8.072 7.372 8.167 7.192 8.167 7 L 7.583 7 Z M 7.583 0 L 8.167 0 C 8.167 -0.192 8.072 -0.372 7.914 -0.481 C 7.755 -0.59 7.553 -0.613 7.374 -0.544 L 7.583 0 Z M 0 2.917 L -0.583 2.917 L -0.583 4.083 L 0 4.083 L 0.583 4.083 L 0.583 2.917 L 0 2.917 Z M 0 4.083 L -0.209 4.628 L 7.374 7.544 L 7.583 7 L 7.793 6.456 L 0.209 3.539 L 0 4.083 Z M 7.583 7 L 8.167 7 L 8.167 0 L 7.583 0 L 7 0 L 7 7 L 7.583 7 Z M 7.583 0 L 7.374 -0.544 L -0.209 2.372 L 0 2.917 L 0.209 3.461 L 7.793 0.544 L 7.583 0 Z" fill="rgb(90,158,47)" fill-rule="nonzero"></path><path transform="translate(9.333 5.25)" d="M 0 -0.583 C -0.322 -0.583 -0.583 -0.322 -0.583 0 C -0.583 0.322 -0.322 0.583 0 0.583 L 0 0 L 0 -0.583 Z M 1.75 1.75 L 2.333 1.75 L 1.75 1.75 Z M 0 2.917 C -0.322 2.917 -0.583 3.178 -0.583 3.5 C -0.583 3.822 -0.322 4.083 0 4.083 L 0 3.5 L 0 2.917 Z M 0 0 L 0 0.583 C 0.309 0.583 0.606 0.706 0.825 0.925 L 1.237 0.513 L 1.65 0.1 C 1.212 -0.338 0.619 -0.583 0 -0.583 L 0 0 Z M 1.237 0.513 L 0.825 0.925 C 1.044 1.144 1.167 1.441 1.167 1.75 L 1.75 1.75 L 2.333 1.75 C 2.333 1.131 2.088 0.538 1.65 0.1 L 1.237 0.513 Z M 1.75 1.75 L 1.167 1.75 C 1.167 2.059 1.044 2.356 0.825 2.575 L 1.237 2.987 L 1.65 3.4 C 2.088 2.962 2.333 2.369 2.333 1.75 L 1.75 1.75 Z M 1.237 2.987 L 0.825 2.575 C 0.606 2.794 0.309 2.917 0 2.917 L 0 3.5 L 0 4.083 C 0.619 4.083 1.212 3.838 1.65 3.4 L 1.237 2.987 Z" fill="rgb(90,158,47)" fill-rule="nonzero"></path></svg>