<svg xmlns="http://www.w3.org/2000/svg" width="14" height="14" viewBox="0 0 14 14" fill="none"><path transform="translate(4.667 4.667)" d="M 1.167 0 L 1.167 0.583 L 5.833 0.583 L 5.833 0 L 5.833 -0.583 L 1.167 -0.583 L 1.167 0 Z M 5.833 0 L 5.833 0.583 C 6.155 0.583 6.417 0.845 6.417 1.167 L 7 1.167 L 7.583 1.167 C 7.583 0.2 6.8 -0.583 5.833 -0.583 L 5.833 0 Z M 7 1.167 L 6.417 1.167 L 6.417 5.833 L 7 5.833 L 7.583 5.833 L 7.583 1.167 L 7 1.167 Z M 7 5.833 L 6.417 5.833 C 6.417 6.155 6.155 6.417 5.833 6.417 L 5.833 7 L 5.833 7.583 C 6.8 7.583 7.583 6.8 7.583 5.833 L 7 5.833 Z M 5.833 7 L 5.833 6.417 L 1.167 6.417 L 1.167 7 L 1.167 7.583 L 5.833 7.583 L 5.833 7 Z M 1.167 7 L 1.167 6.417 C 0.845 6.417 0.583 6.155 0.583 5.833 L 0 5.833 L -0.583 5.833 C -0.583 6.8 0.2 7.583 1.167 7.583 L 1.167 7 Z M 0 5.833 L 0.583 5.833 L 0.583 1.167 L 0 1.167 L -0.583 1.167 L -0.583 5.833 L 0 5.833 Z M 0 1.167 L 0.583 1.167 C 0.583 0.845 0.845 0.583 1.167 0.583 L 1.167 0 L 1.167 -0.583 C 0.2 -0.583 -0.583 0.2 -0.583 1.167 L 0 1.167 Z" fill="rgb(90,158,47)" fill-rule="nonzero"></path><path transform="translate(2.333 2.333)" d="M 6.417 2.333 C 6.417 2.655 6.678 2.917 7 2.917 C 7.322 2.917 7.583 2.655 7.583 2.333 L 7 2.333 L 6.417 2.333 Z M 5.833 0 L 5.833 -0.583 L 5.833 0 Z M 1.167 0 L 1.167 -0.583 L 1.167 0 Z M 0 1.167 L -0.583 1.167 L 0 1.167 Z M 0 5.833 L -0.583 5.833 L 0 5.833 Z M 2.333 7.583 C 2.655 7.583 2.917 7.322 2.917 7 C 2.917 6.678 2.655 6.417 2.333 6.417 L 2.333 7 L 2.333 7.583 Z M 7 2.333 L 7.583 2.333 L 7.583 1.167 L 7 1.167 L 6.417 1.167 L 6.417 2.333 L 7 2.333 Z M 7 1.167 L 7.583 1.167 C 7.583 0.703 7.399 0.257 7.071 -0.071 L 6.658 0.342 L 6.246 0.754 C 6.355 0.864 6.417 1.012 6.417 1.167 L 7 1.167 Z M 6.658 0.342 L 7.071 -0.071 C 6.743 -0.399 6.297 -0.583 5.833 -0.583 L 5.833 0 L 5.833 0.583 C 5.988 0.583 6.136 0.645 6.246 0.754 L 6.658 0.342 Z M 5.833 0 L 5.833 -0.583 L 1.167 -0.583 L 1.167 0 L 1.167 0.583 L 5.833 0.583 L 5.833 0 Z M 1.167 0 L 1.167 -0.583 C 0.703 -0.583 0.257 -0.399 -0.071 -0.071 L 0.342 0.342 L 0.754 0.754 C 0.864 0.645 1.012 0.583 1.167 0.583 L 1.167 0 Z M 0.342 0.342 L -0.071 -0.071 C -0.399 0.257 -0.583 0.703 -0.583 1.167 L 0 1.167 L 0.583 1.167 C 0.583 1.012 0.645 0.864 0.754 0.754 L 0.342 0.342 Z M 0 1.167 L -0.583 1.167 L -0.583 5.833 L 0 5.833 L 0.583 5.833 L 0.583 1.167 L 0 1.167 Z M 0 5.833 L -0.583 5.833 C -0.583 6.297 -0.399 6.743 -0.071 7.071 L 0.342 6.658 L 0.754 6.246 C 0.645 6.136 0.583 5.988 0.583 5.833 L 0 5.833 Z M 0.342 6.658 L -0.071 7.071 C 0.257 7.399 0.703 7.583 1.167 7.583 L 1.167 7 L 1.167 6.417 C 1.012 6.417 0.864 6.355 0.754 6.246 L 0.342 6.658 Z M 1.167 7 L 1.167 7.583 L 2.333 7.583 L 2.333 7 L 2.333 6.417 L 1.167 6.417 L 1.167 7 Z" fill="rgb(90,158,47)" fill-rule="nonzero"></path></svg>