<svg xmlns="http://www.w3.org/2000/svg" width="14" height="14" viewBox="0 0 14 14" fill="none"><path transform="translate(1.75 1.75)" d="M 1.167 0 L 1.167 0.583 L 9.333 0.583 L 9.333 0 L 9.333 -0.583 L 1.167 -0.583 L 1.167 0 Z M 9.333 0 L 9.333 0.583 C 9.655 0.583 9.917 0.845 9.917 1.167 L 10.5 1.167 L 11.083 1.167 C 11.083 0.2 10.3 -0.583 9.333 -0.583 L 9.333 0 Z M 10.5 1.167 L 9.917 1.167 L 9.917 9.333 L 10.5 9.333 L 11.083 9.333 L 11.083 1.167 L 10.5 1.167 Z M 10.5 9.333 L 9.917 9.333 C 9.917 9.655 9.655 9.917 9.333 9.917 L 9.333 10.5 L 9.333 11.083 C 10.3 11.083 11.083 10.3 11.083 9.333 L 10.5 9.333 Z M 9.333 10.5 L 9.333 9.917 L 1.167 9.917 L 1.167 10.5 L 1.167 11.083 L 9.333 11.083 L 9.333 10.5 Z M 1.167 10.5 L 1.167 9.917 C 0.845 9.917 0.583 9.655 0.583 9.333 L 0 9.333 L -0.583 9.333 C -0.583 10.3 0.2 11.083 1.167 11.083 L 1.167 10.5 Z M 0 9.333 L 0.583 9.333 L 0.583 1.167 L 0 1.167 L -0.583 1.167 L -0.583 9.333 L 0 9.333 Z M 0 1.167 L 0.583 1.167 C 0.583 0.845 0.845 0.583 1.167 0.583 L 1.167 0 L 1.167 -0.583 C 0.2 -0.583 -0.583 0.2 -0.583 1.167 L 0 1.167 Z" fill="rgb(18,102,181)" fill-rule="nonzero"></path><path transform="translate(1.75 5.25)" d="M 0 -0.583 C -0.322 -0.583 -0.583 -0.322 -0.583 0 C -0.583 0.322 -0.322 0.583 0 0.583 L 0 0 L 0 -0.583 Z M 10.5 0.583 C 10.822 0.583 11.083 0.322 11.083 0 C 11.083 -0.322 10.822 -0.583 10.5 -0.583 L 10.5 0 L 10.5 0.583 Z M 2.917 7 C 2.917 7.322 3.178 7.583 3.5 7.583 C 3.822 7.583 4.083 7.322 4.083 7 L 3.5 7 L 2.917 7 Z M 4.083 0 C 4.083 -0.322 3.822 -0.583 3.5 -0.583 C 3.178 -0.583 2.917 -0.322 2.917 0 L 3.5 0 L 4.083 0 Z M 0 0 L 0 0.583 L 10.5 0.583 L 10.5 0 L 10.5 -0.583 L 0 -0.583 L 0 0 Z M 3.5 7 L 4.083 7 L 4.083 0 L 3.5 0 L 2.917 0 L 2.917 7 L 3.5 7 Z" fill="rgb(18,102,181)" fill-rule="nonzero"></path></svg>