<svg xmlns="http://www.w3.org/2000/svg" width="14" height="14" viewBox="0 0 14 14" fill="none"><path transform="translate(4.667 1.669)" d="M 2.042 0.198 L 2.541 0.499 L 2.542 0.498 L 2.042 0.198 Z M 2.392 0 L 2.392 0.583 L 2.392 0 Z M 2.742 0.198 L 3.249 -0.091 L 3.242 -0.102 L 2.742 0.198 Z M 4.667 3.581 L 4.667 4.165 C 4.874 4.165 5.066 4.054 5.171 3.875 C 5.275 3.695 5.276 3.473 5.174 3.293 L 4.667 3.581 Z M 0 3.581 L -0.499 3.28 C -0.608 3.46 -0.611 3.685 -0.508 3.868 C -0.405 4.051 -0.21 4.165 0 4.165 L 0 3.581 Z M 2.042 0.198 L 2.542 0.498 C 2.526 0.524 2.504 0.546 2.478 0.561 L 2.191 0.053 L 1.903 -0.455 C 1.754 -0.371 1.63 -0.249 1.542 -0.102 L 2.042 0.198 Z M 2.191 0.053 L 2.478 0.561 C 2.452 0.576 2.422 0.583 2.392 0.583 L 2.392 0 L 2.392 -0.583 C 2.221 -0.583 2.052 -0.539 1.903 -0.455 L 2.191 0.053 Z M 2.392 0 L 2.392 0.583 C 2.361 0.583 2.332 0.576 2.305 0.561 L 2.593 0.053 L 2.88 -0.455 C 2.731 -0.539 2.563 -0.583 2.392 -0.583 L 2.392 0 Z M 2.593 0.053 L 2.305 0.561 C 2.279 0.546 2.257 0.524 2.242 0.498 L 2.742 0.198 L 3.242 -0.102 C 3.154 -0.249 3.029 -0.371 2.88 -0.455 L 2.593 0.053 Z M 2.742 0.198 L 2.235 0.486 L 4.16 3.87 L 4.667 3.581 L 5.174 3.293 L 3.249 -0.09 L 2.742 0.198 Z M 4.667 3.581 L 4.667 2.998 L 0 2.998 L 0 3.581 L 0 4.165 L 4.667 4.165 L 4.667 3.581 Z M 0 3.581 L 0.499 3.883 L 2.541 0.499 L 2.042 0.198 L 1.542 -0.103 L -0.499 3.28 L 0 3.581 Z" fill="rgb(90,158,47)" fill-rule="nonzero"></path><path transform="translate(1.75 8.167)" d="M 0.7 0 L 0.7 0.583 L 3.383 0.583 L 3.383 0 L 3.383 -0.583 L 0.7 -0.583 L 0.7 0 Z M 3.383 0 L 3.383 0.583 C 3.448 0.583 3.5 0.636 3.5 0.7 L 4.083 0.7 L 4.667 0.7 C 4.667 -0.009 4.092 -0.583 3.383 -0.583 L 3.383 0 Z M 4.083 0.7 L 3.5 0.7 L 3.5 3.383 L 4.083 3.383 L 4.667 3.383 L 4.667 0.7 L 4.083 0.7 Z M 4.083 3.383 L 3.5 3.383 C 3.5 3.448 3.448 3.5 3.383 3.5 L 3.383 4.083 L 3.383 4.667 C 4.092 4.667 4.667 4.092 4.667 3.383 L 4.083 3.383 Z M 3.383 4.083 L 3.383 3.5 L 0.7 3.5 L 0.7 4.083 L 0.7 4.667 L 3.383 4.667 L 3.383 4.083 Z M 0.7 4.083 L 0.7 3.5 C 0.636 3.5 0.583 3.448 0.583 3.383 L 0 3.383 L -0.583 3.383 C -0.583 4.092 -0.009 4.667 0.7 4.667 L 0.7 4.083 Z M 0 3.383 L 0.583 3.383 L 0.583 0.7 L 0 0.7 L -0.583 0.7 L -0.583 3.383 L 0 3.383 Z M 0 0.7 L 0.583 0.7 C 0.583 0.636 0.636 0.583 0.7 0.583 L 0.7 0 L 0.7 -0.583 C -0.009 -0.583 -0.583 -0.009 -0.583 0.7 L 0 0.7 Z" fill="rgb(90,158,47)" fill-rule="nonzero"></path><path transform="translate(8.167 8.167)" d="M 4.083 2.042 L 3.5 2.042 C 3.5 2.847 2.847 3.5 2.042 3.5 L 2.042 4.083 L 2.042 4.667 C 3.491 4.667 4.667 3.491 4.667 2.042 L 4.083 2.042 Z M 2.042 4.083 L 2.042 3.5 C 1.236 3.5 0.583 2.847 0.583 2.042 L 0 2.042 L -0.583 2.042 C -0.583 3.491 0.592 4.667 2.042 4.667 L 2.042 4.083 Z M 0 2.042 L 0.583 2.042 C 0.583 1.236 1.236 0.583 2.042 0.583 L 2.042 0 L 2.042 -0.583 C 0.592 -0.583 -0.583 0.592 -0.583 2.042 L 0 2.042 Z M 2.042 0 L 2.042 0.583 C 2.847 0.583 3.5 1.236 3.5 2.042 L 4.083 2.042 L 4.667 2.042 C 4.667 0.592 3.491 -0.583 2.042 -0.583 L 2.042 0 Z" fill="rgb(90,158,47)" fill-rule="nonzero"></path></svg>