<svg xmlns="http://www.w3.org/2000/svg" width="14" height="14" viewBox="0 0 14 14" fill="none"><path transform="translate(2.917 1.75)" d="M 3.5 0 L 4.042 -0.214 C 3.954 -0.437 3.739 -0.583 3.5 -0.583 C 3.261 -0.583 3.046 -0.437 2.958 -0.214 L 3.5 0 Z M 4.492 2.508 L 3.949 2.723 C 4.008 2.873 4.127 2.992 4.277 3.051 L 4.492 2.508 Z M 7 3.5 L 7.214 4.042 C 7.437 3.954 7.583 3.739 7.583 3.5 C 7.583 3.261 7.437 3.046 7.214 2.958 L 7 3.5 Z M 4.492 4.492 L 4.277 3.949 C 4.127 4.008 4.008 4.127 3.949 4.277 L 4.492 4.492 Z M 3.5 7 L 2.958 7.214 C 3.046 7.437 3.261 7.583 3.5 7.583 C 3.739 7.583 3.954 7.437 4.042 7.214 L 3.5 7 Z M 2.508 4.492 L 3.051 4.277 C 2.992 4.127 2.873 4.008 2.723 3.949 L 2.508 4.492 Z M 0 3.5 L -0.214 2.958 C -0.437 3.046 -0.583 3.261 -0.583 3.5 C -0.583 3.739 -0.437 3.954 -0.214 4.042 L 0 3.5 Z M 2.508 2.508 L 2.723 3.051 C 2.873 2.992 2.992 2.873 3.051 2.723 L 2.508 2.508 Z M 3.5 0 L 2.958 0.214 L 3.949 2.723 L 4.492 2.508 L 5.034 2.294 L 4.042 -0.214 L 3.5 0 Z M 4.492 2.508 L 4.277 3.051 L 6.786 4.042 L 7 3.5 L 7.214 2.958 L 4.706 1.966 L 4.492 2.508 Z M 7 3.5 L 6.786 2.958 L 4.277 3.949 L 4.492 4.492 L 4.706 5.034 L 7.214 4.042 L 7 3.5 Z M 4.492 4.492 L 3.949 4.277 L 2.958 6.786 L 3.5 7 L 4.042 7.214 L 5.034 4.706 L 4.492 4.492 Z M 3.5 7 L 4.042 6.786 L 3.051 4.277 L 2.508 4.492 L 1.966 4.706 L 2.958 7.214 L 3.5 7 Z M 2.508 4.492 L 2.723 3.949 L 0.214 2.958 L 0 3.5 L -0.214 4.042 L 2.294 5.034 L 2.508 4.492 Z M 0 3.5 L 0.214 4.042 L 2.723 3.051 L 2.508 2.508 L 2.294 1.966 L -0.214 2.958 L 0 3.5 Z M 2.508 2.508 L 3.051 2.723 L 4.042 0.214 L 3.5 0 L 2.958 -0.214 L 1.966 2.294 L 2.508 2.508 Z" fill="rgb(18,102,181)" fill-rule="nonzero"></path><path transform="translate(8.75 7.583)" d="M 1.75 0 L 2.275 1.225 L 3.5 1.75 L 2.275 2.275 L 1.75 3.5 L 1.225 2.275 L 0 1.75 L 1.225 1.225 L 1.75 0 Z" fill="rgb(18,102,181)" fill-rule="nonzero"></path></svg>