<svg xmlns="http://www.w3.org/2000/svg" width="14" height="14" viewBox="0 0 14 14" fill="none"><path transform="translate(1.75 1.75)" d="M 1.167 0 L 1.167 0.583 L 9.333 0.583 L 9.333 0 L 9.333 -0.583 L 1.167 -0.583 L 1.167 0 Z M 9.333 0 L 9.333 0.583 C 9.655 0.583 9.917 0.845 9.917 1.167 L 10.5 1.167 L 11.083 1.167 C 11.083 0.2 10.3 -0.583 9.333 -0.583 L 9.333 0 Z M 10.5 1.167 L 9.917 1.167 L 9.917 9.333 L 10.5 9.333 L 11.083 9.333 L 11.083 1.167 L 10.5 1.167 Z M 10.5 9.333 L 9.917 9.333 C 9.917 9.655 9.655 9.917 9.333 9.917 L 9.333 10.5 L 9.333 11.083 C 10.3 11.083 11.083 10.3 11.083 9.333 L 10.5 9.333 Z M 9.333 10.5 L 9.333 9.917 L 1.167 9.917 L 1.167 10.5 L 1.167 11.083 L 9.333 11.083 L 9.333 10.5 Z M 1.167 10.5 L 1.167 9.917 C 0.845 9.917 0.583 9.655 0.583 9.333 L 0 9.333 L -0.583 9.333 C -0.583 10.3 0.2 11.083 1.167 11.083 L 1.167 10.5 Z M 0 9.333 L 0.583 9.333 L 0.583 1.167 L 0 1.167 L -0.583 1.167 L -0.583 9.333 L 0 9.333 Z M 0 1.167 L 0.583 1.167 C 0.583 0.845 0.845 0.583 1.167 0.583 L 1.167 0 L 1.167 -0.583 C 0.2 -0.583 -0.583 0.2 -0.583 1.167 L 0 1.167 Z" fill="rgb(18,102,181)" fill-rule="nonzero"></path><path transform="translate(1.75 1.75)" d="M 0 2.333 C -0.322 2.333 -0.583 2.595 -0.583 2.917 C -0.583 3.239 -0.322 3.5 0 3.5 L 0 2.917 L 0 2.333 Z M 10.5 3.5 C 10.822 3.5 11.083 3.239 11.083 2.917 C 11.083 2.595 10.822 2.333 10.5 2.333 L 10.5 2.917 L 10.5 3.5 Z M 0 7 C -0.322 7 -0.583 7.261 -0.583 7.583 C -0.583 7.905 -0.322 8.167 0 8.167 L 0 7.583 L 0 7 Z M 10.5 8.167 C 10.822 8.167 11.083 7.905 11.083 7.583 C 11.083 7.261 10.822 7 10.5 7 L 10.5 7.583 L 10.5 8.167 Z M 3.5 0 C 3.5 -0.322 3.239 -0.583 2.917 -0.583 C 2.595 -0.583 2.333 -0.322 2.333 0 L 2.917 0 L 3.5 0 Z M 2.333 10.5 C 2.333 10.822 2.595 11.083 2.917 11.083 C 3.239 11.083 3.5 10.822 3.5 10.5 L 2.917 10.5 L 2.333 10.5 Z M 8.167 0 C 8.167 -0.322 7.905 -0.583 7.583 -0.583 C 7.261 -0.583 7 -0.322 7 0 L 7.583 0 L 8.167 0 Z M 7 10.5 C 7 10.822 7.261 11.083 7.583 11.083 C 7.905 11.083 8.167 10.822 8.167 10.5 L 7.583 10.5 L 7 10.5 Z M 0 2.917 L 0 3.5 L 10.5 3.5 L 10.5 2.917 L 10.5 2.333 L 0 2.333 L 0 2.917 Z M 0 7.583 L 0 8.167 L 10.5 8.167 L 10.5 7.583 L 10.5 7 L 0 7 L 0 7.583 Z M 2.917 0 L 2.333 0 L 2.333 10.5 L 2.917 10.5 L 3.5 10.5 L 3.5 0 L 2.917 0 Z M 7.583 0 L 7 0 L 7 10.5 L 7.583 10.5 L 8.167 10.5 L 8.167 0 L 7.583 0 Z" fill="rgb(18,102,181)" fill-rule="nonzero"></path></svg>