<svg xmlns="http://www.w3.org/2000/svg" width="14" height="14" viewBox="0 0 14 14" fill="none"><path transform="translate(1.75 3.5)" d="M 1.167 0 L 1.167 0.583 L 6.417 0.583 L 6.417 0 L 6.417 -0.583 L 1.167 -0.583 L 1.167 0 Z M 6.417 0 L 6.417 0.583 C 6.739 0.583 7 0.845 7 1.167 L 7.583 1.167 L 8.167 1.167 C 8.167 0.2 7.383 -0.583 6.417 -0.583 L 6.417 0 Z M 7.583 1.167 L 7 1.167 L 7 5.833 L 7.583 5.833 L 8.167 5.833 L 8.167 1.167 L 7.583 1.167 Z M 7.583 5.833 L 7 5.833 C 7 6.155 6.739 6.417 6.417 6.417 L 6.417 7 L 6.417 7.583 C 7.383 7.583 8.167 6.8 8.167 5.833 L 7.583 5.833 Z M 6.417 7 L 6.417 6.417 L 1.167 6.417 L 1.167 7 L 1.167 7.583 L 6.417 7.583 L 6.417 7 Z M 1.167 7 L 1.167 6.417 C 0.845 6.417 0.583 6.155 0.583 5.833 L 0 5.833 L -0.583 5.833 C -0.583 6.8 0.2 7.583 1.167 7.583 L 1.167 7 Z M 0 5.833 L 0.583 5.833 L 0.583 1.167 L 0 1.167 L -0.583 1.167 L -0.583 5.833 L 0 5.833 Z M 0 1.167 L 0.583 1.167 C 0.583 0.845 0.845 0.583 1.167 0.583 L 1.167 0 L 1.167 -0.583 C 0.2 -0.583 -0.583 0.2 -0.583 1.167 L 0 1.167 Z" fill="rgb(18,102,181)" fill-rule="nonzero"></path><path transform="translate(9.333 4.083)" d="M 0 1.75 L -0.3 1.25 C -0.476 1.355 -0.583 1.545 -0.583 1.75 L 0 1.75 Z M 2.917 0 L 3.5 0 C 3.5 -0.21 3.387 -0.404 3.204 -0.508 C 3.021 -0.611 2.797 -0.608 2.617 -0.5 L 2.917 0 Z M 2.917 5.833 L 2.617 6.334 C 2.797 6.442 3.021 6.444 3.204 6.341 C 3.387 6.237 3.5 6.043 3.5 5.833 L 2.917 5.833 Z M 0 4.083 L -0.583 4.083 C -0.583 4.288 -0.476 4.478 -0.3 4.584 L 0 4.083 Z M 0 1.75 L 0.3 2.25 L 3.217 0.5 L 2.917 0 L 2.617 -0.5 L -0.3 1.25 L 0 1.75 Z M 2.917 0 L 2.333 0 L 2.333 5.833 L 2.917 5.833 L 3.5 5.833 L 3.5 0 L 2.917 0 Z M 2.917 5.833 L 3.217 5.333 L 0.3 3.583 L 0 4.083 L -0.3 4.584 L 2.617 6.334 L 2.917 5.833 Z M 0 4.083 L 0.583 4.083 L 0.583 1.75 L 0 1.75 L -0.583 1.75 L -0.583 4.083 L 0 4.083 Z" fill="rgb(18,102,181)" fill-rule="nonzero"></path></svg>