<svg xmlns="http://www.w3.org/2000/svg" width="14" height="14" viewBox="0 0 14 14" fill="none"><path transform="translate(1.75 1.75)" d="M 10.5 5.25 L 9.917 5.25 C 9.917 7.827 7.827 9.917 5.25 9.917 L 5.25 10.5 L 5.25 11.083 C 8.472 11.083 11.083 8.472 11.083 5.25 L 10.5 5.25 Z M 5.25 10.5 L 5.25 9.917 C 2.673 9.917 0.583 7.827 0.583 5.25 L 0 5.25 L -0.583 5.25 C -0.583 8.472 2.028 11.083 5.25 11.083 L 5.25 10.5 Z M 0 5.25 L 0.583 5.25 C 0.583 2.673 2.673 0.583 5.25 0.583 L 5.25 0 L 5.25 -0.583 C 2.028 -0.583 -0.583 2.028 -0.583 5.25 L 0 5.25 Z M 5.25 0 L 5.25 0.583 C 7.827 0.583 9.917 2.673 9.917 5.25 L 10.5 5.25 L 11.083 5.25 C 11.083 2.028 8.472 -0.583 5.25 -0.583 L 5.25 0 Z" fill="rgb(90,158,47)" fill-rule="nonzero"></path><path transform="translate(4.667 4.667)" d="M 4.667 0 L 3.267 3.267 L 0 4.667 L 1.4 1.4 L 4.667 0 Z" fill="rgb(90,158,47)" fill-rule="nonzero"></path></svg>