<svg xmlns="http://www.w3.org/2000/svg" width="14" height="14" viewBox="0 0 14 14" fill="none"><path transform="translate(2.333 2.333)" d="M 0 0 L 0.234 -0.534 C 0.014 -0.631 -0.243 -0.582 -0.412 -0.412 C -0.582 -0.243 -0.631 0.014 -0.534 0.234 L 0 0 Z M 4.083 9.333 L 3.549 9.567 C 3.645 9.787 3.867 9.926 4.107 9.916 C 4.347 9.906 4.557 9.75 4.635 9.523 L 4.083 9.333 Z M 5.425 5.425 L 5.236 4.873 C 5.065 4.932 4.932 5.065 4.873 5.236 L 5.425 5.425 Z M 9.333 4.083 L 9.523 4.635 C 9.75 4.557 9.906 4.347 9.916 4.107 C 9.926 3.867 9.787 3.645 9.567 3.549 L 9.333 4.083 Z M 0 0 L -0.534 0.234 L 3.549 9.567 L 4.083 9.333 L 4.618 9.1 L 0.534 -0.234 L 0 0 Z M 4.083 9.333 L 4.635 9.523 L 5.977 5.614 L 5.425 5.425 L 4.873 5.236 L 3.532 9.144 L 4.083 9.333 Z M 5.425 5.425 L 5.614 5.977 L 9.523 4.635 L 9.333 4.083 L 9.144 3.532 L 5.236 4.873 L 5.425 5.425 Z M 9.333 4.083 L 9.567 3.549 L 0.234 -0.534 L 0 0 L -0.234 0.534 L 9.1 4.618 L 9.333 4.083 Z" fill="rgb(18,102,181)" fill-rule="nonzero"></path></svg>