<svg xmlns="http://www.w3.org/2000/svg" width="14" height="14" viewBox="0 0 14 14" fill="none"><path transform="translate(1.75 1.75)" d="M 5.25 0 L 5.833 0 C 5.833 -0.155 5.772 -0.303 5.662 -0.412 C 5.553 -0.522 5.405 -0.583 5.25 -0.583 L 5.25 0 Z M 5.25 10.5 L 5.25 11.083 L 5.25 11.083 L 5.25 10.5 Z M 7.583 7.117 L 7.583 7.7 L 7.583 7.117 Z M 5.25 0.117 L 4.667 0.117 C 4.667 0.439 4.928 0.7 5.25 0.7 L 5.25 0.117 Z M 5.25 0 L 5.25 -0.583 C 3.703 -0.583 2.219 0.031 1.125 1.125 L 1.538 1.538 L 1.95 1.95 C 2.825 1.075 4.012 0.583 5.25 0.583 L 5.25 0 Z M 1.538 1.538 L 1.125 1.125 C 0.031 2.219 -0.583 3.703 -0.583 5.25 L 0 5.25 L 0.583 5.25 C 0.583 4.012 1.075 2.825 1.95 1.95 L 1.538 1.538 Z M 0 5.25 L -0.583 5.25 C -0.583 6.797 0.031 8.281 1.125 9.375 L 1.538 8.962 L 1.95 8.55 C 1.075 7.675 0.583 6.488 0.583 5.25 L 0 5.25 Z M 1.538 8.962 L 1.125 9.375 C 2.219 10.469 3.703 11.083 5.25 11.083 L 5.25 10.5 L 5.25 9.917 C 4.012 9.917 2.825 9.425 1.95 8.55 L 1.538 8.962 Z M 5.25 10.5 L 5.25 11.083 C 6.155 11.083 6.883 10.356 6.883 9.45 L 6.3 9.45 L 5.717 9.45 C 5.717 9.711 5.511 9.917 5.25 9.917 L 5.25 10.5 Z M 6.3 9.45 L 6.883 9.45 C 6.883 8.987 6.693 8.61 6.421 8.338 L 6.008 8.75 L 5.596 9.162 C 5.673 9.24 5.717 9.329 5.717 9.45 L 6.3 9.45 Z M 6.008 8.75 L 6.421 8.338 C 6.328 8.244 6.3 8.152 6.3 8.108 L 5.717 8.108 L 5.133 8.108 C 5.133 8.531 5.339 8.906 5.596 9.162 L 6.008 8.75 Z M 5.717 8.108 L 6.3 8.108 C 6.3 7.89 6.461 7.7 6.767 7.7 L 6.767 7.117 L 6.767 6.533 C 5.906 6.533 5.133 7.16 5.133 8.108 L 5.717 8.108 Z M 6.767 7.117 L 6.767 7.7 L 7.583 7.7 L 7.583 7.117 L 7.583 6.533 L 6.767 6.533 L 6.767 7.117 Z M 7.583 7.117 L 7.583 7.7 C 8.357 7.7 9.099 7.393 9.646 6.846 L 9.233 6.433 L 8.821 6.021 C 8.493 6.349 8.047 6.533 7.583 6.533 L 7.583 7.117 Z M 9.233 6.433 L 9.646 6.846 C 10.193 6.299 10.5 5.557 10.5 4.783 L 9.917 4.783 L 9.333 4.783 C 9.333 5.247 9.149 5.693 8.821 6.021 L 9.233 6.433 Z M 9.917 4.783 L 10.5 4.783 C 10.5 1.895 8.139 -0.467 5.25 -0.467 L 5.25 0.117 L 5.25 0.7 C 7.495 0.7 9.333 2.539 9.333 4.783 L 9.917 4.783 Z M 5.25 0.117 L 5.833 0.117 L 5.833 0 L 5.25 0 L 4.667 0 L 4.667 0.117 L 5.25 0.117 Z" fill="rgb(90,158,47)" fill-rule="nonzero"></path><path transform="translate(3.967 5.833)" d="M 0.583 1.167 C 0.905 1.167 1.167 0.905 1.167 0.583 C 1.167 0.261 0.905 0 0.583 0 C 0.261 0 0 0.261 0 0.583 C 0 0.905 0.261 1.167 0.583 1.167 Z" fill="rgb(90,158,47)" fill-rule="nonzero"></path><path transform="translate(6.417 4.083)" d="M 0.583 1.167 C 0.905 1.167 1.167 0.905 1.167 0.583 C 1.167 0.261 0.905 0 0.583 0 C 0.261 0 0 0.261 0 0.583 C 0 0.905 0.261 1.167 0.583 1.167 Z" fill="rgb(90,158,47)" fill-rule="nonzero"></path><path transform="translate(8.867 5.833)" d="M 0.583 1.167 C 0.905 1.167 1.167 0.905 1.167 0.583 C 1.167 0.261 0.905 0 0.583 0 C 0.261 0 0 0.261 0 0.583 C 0 0.905 0.261 1.167 0.583 1.167 Z" fill="rgb(90,158,47)" fill-rule="nonzero"></path></svg>