<svg xmlns="http://www.w3.org/2000/svg" width="14" height="14" viewBox="0 0 14 14" fill="none"><path transform="translate(1.75 1.167)" d="M 5.833 0 L 6.412 0.072 C 6.444 -0.185 6.303 -0.432 6.066 -0.535 C 5.828 -0.638 5.551 -0.572 5.385 -0.373 L 5.833 0 Z M 0 7 L -0.448 6.627 C -0.593 6.8 -0.624 7.042 -0.528 7.247 C -0.432 7.452 -0.226 7.583 0 7.583 L 0 7 Z M 4.083 7 L 4.662 7.072 C 4.683 6.906 4.631 6.739 4.521 6.614 C 4.41 6.489 4.251 6.417 4.083 6.417 L 4.083 7 Z M 3.5 11.667 L 2.921 11.594 C 2.889 11.851 3.03 12.099 3.268 12.202 C 3.505 12.305 3.782 12.239 3.948 12.04 L 3.5 11.667 Z M 9.333 4.667 L 9.781 5.04 C 9.926 4.866 9.958 4.624 9.862 4.419 C 9.766 4.214 9.56 4.083 9.333 4.083 L 9.333 4.667 Z M 5.25 4.667 L 4.671 4.594 C 4.65 4.76 4.702 4.927 4.813 5.053 C 4.923 5.178 5.083 5.25 5.25 5.25 L 5.25 4.667 Z M 5.833 0 L 5.385 -0.373 L -0.448 6.627 L 0 7 L 0.448 7.373 L 6.281 0.373 L 5.833 0 Z M 0 7 L 0 7.583 L 4.083 7.583 L 4.083 7 L 4.083 6.417 L 0 6.417 L 0 7 Z M 4.083 7 L 3.505 6.928 L 2.921 11.594 L 3.5 11.667 L 4.079 11.739 L 4.662 7.072 L 4.083 7 Z M 3.5 11.667 L 3.948 12.04 L 9.781 5.04 L 9.333 4.667 L 8.885 4.293 L 3.052 11.293 L 3.5 11.667 Z M 9.333 4.667 L 9.333 4.083 L 5.25 4.083 L 5.25 4.667 L 5.25 5.25 L 9.333 5.25 L 9.333 4.667 Z M 5.25 4.667 L 5.829 4.739 L 6.412 0.072 L 5.833 0 L 5.255 -0.072 L 4.671 4.594 L 5.25 4.667 Z" fill="rgb(18,102,181)" fill-rule="nonzero"></path></svg>