<svg xmlns="http://www.w3.org/2000/svg" width="14" height="14" viewBox="0 0 14 14" fill="none"><path transform="translate(1.75 1.75)" d="M 10.5 5.25 L 9.917 5.25 C 9.917 7.827 7.827 9.917 5.25 9.917 L 5.25 10.5 L 5.25 11.083 C 8.472 11.083 11.083 8.472 11.083 5.25 L 10.5 5.25 Z M 5.25 10.5 L 5.25 9.917 C 2.673 9.917 0.583 7.827 0.583 5.25 L 0 5.25 L -0.583 5.25 C -0.583 8.472 2.028 11.083 5.25 11.083 L 5.25 10.5 Z M 0 5.25 L 0.583 5.25 C 0.583 2.673 2.673 0.583 5.25 0.583 L 5.25 0 L 5.25 -0.583 C 2.028 -0.583 -0.583 2.028 -0.583 5.25 L 0 5.25 Z M 5.25 0 L 5.25 0.583 C 7.827 0.583 9.917 2.673 9.917 5.25 L 10.5 5.25 L 11.083 5.25 C 11.083 2.028 8.472 -0.583 5.25 -0.583 L 5.25 0 Z" fill="rgb(18,102,181)" fill-rule="nonzero"></path><path transform="translate(1.75 1.75)" d="M 0 4.667 C -0.322 4.667 -0.583 4.928 -0.583 5.25 C -0.583 5.572 -0.322 5.833 0 5.833 L 0 5.25 L 0 4.667 Z M 10.5 5.833 C 10.822 5.833 11.083 5.572 11.083 5.25 C 11.083 4.928 10.822 4.667 10.5 4.667 L 10.5 5.25 L 10.5 5.833 Z M 5.25 0 L 5.662 -0.412 C 5.435 -0.64 5.065 -0.64 4.838 -0.412 L 5.25 0 Z M 5.25 10.5 L 4.838 10.912 C 5.065 11.14 5.435 11.14 5.662 10.912 L 5.25 10.5 Z M 0 5.25 L 0 5.833 L 10.5 5.833 L 10.5 5.25 L 10.5 4.667 L 0 4.667 L 0 5.25 Z M 5.25 0 L 4.838 0.412 C 5.158 0.733 5.455 1.368 5.667 2.266 C 5.873 3.144 5.979 4.191 5.979 5.25 C 5.979 6.309 5.873 7.356 5.667 8.234 C 5.455 9.132 5.158 9.767 4.838 10.088 L 5.25 10.5 L 5.662 10.912 C 6.217 10.358 6.576 9.461 6.802 8.501 C 7.033 7.519 7.146 6.379 7.146 5.25 C 7.146 4.121 7.033 2.981 6.802 1.999 C 6.576 1.039 6.217 0.142 5.662 -0.412 L 5.25 0 Z M 5.25 10.5 L 5.662 10.088 C 5.342 9.767 5.045 9.132 4.833 8.234 C 4.627 7.356 4.521 6.309 4.521 5.25 C 4.521 4.191 4.627 3.144 4.833 2.266 C 5.045 1.368 5.342 0.733 5.662 0.412 L 5.25 0 L 4.838 -0.412 C 4.283 0.142 3.924 1.039 3.698 1.999 C 3.467 2.981 3.354 4.121 3.354 5.25 C 3.354 6.379 3.467 7.519 3.698 8.501 C 3.924 9.461 4.283 10.358 4.838 10.912 L 5.25 10.5 Z" fill="rgb(18,102,181)" fill-rule="nonzero"></path></svg>