<svg width="130" height="32" viewBox="0 0 130 32" fill="none" xmlns="http://www.w3.org/2000/svg">
<path d="M4.10157 18.8592C3.8473 19.1135 3.65106 19.2185 3.25583 19.2185C2.74866 19.2185 2.66436 18.7182 2.66436 18.1821V8.93555H0.190706V18.4073C0.190706 20.1762 0.895492 21.2126 2.6077 21.2126C3.36915 21.2126 4.13059 21.0219 4.54517 20.5438L4.10157 18.8592ZM1.4303 3.88321C0.527898 3.88321 0 4.49679 0 5.25685C0 6.01691 0.527898 6.60285 1.4303 6.60285C2.3327 6.60285 2.8606 5.98927 2.8606 5.25685C2.8606 4.52443 2.38107 3.88321 1.4303 3.88321Z" fill="#6A7661"></path>
<path d="M25.3141 20.541C24.8636 21.0192 24.1339 21.2168 23.3739 21.2168C21.6313 21.2168 20.9306 20.1776 20.9306 18.4073V13.5457C20.9306 12.2536 20.6501 10.8205 19.1023 10.8205C17.2768 10.8205 16.3495 12.5065 16.3495 14.0805V21.0772H13.8482V13.7999C13.8482 12.255 13.3701 10.8205 11.8817 10.8205C10.3367 10.8205 9.38044 12.1416 9.12755 14.0515V21.0758H6.65527V8.93693H9.21185L9.09991 11.1563C9.57806 9.69699 10.7845 8.62738 12.7233 8.62738C14.466 8.62738 15.6185 9.55604 15.9557 10.9034C16.4891 9.75227 17.8655 8.62738 19.7477 8.62738C22.2766 8.62738 23.4001 10.2581 23.4001 13.0399V18.1821C23.4001 18.7141 23.5121 19.2213 24.0179 19.2213C24.3841 19.2213 24.5803 19.1079 24.8332 18.8551L25.3113 20.541H25.3141Z" fill="#6A7661"></path>
<path d="M37.6839 18.8868C37.4586 19.1052 37.2333 19.2254 36.9514 19.2254C36.4443 19.2254 36.4152 18.768 36.4152 18.2954V12.8685C36.4152 9.35843 34.0328 8.62601 31.7291 8.62601C29.1988 8.62601 27.8735 9.52841 27.0637 11.1563L28.9735 12.4526C29.2555 11.1563 30.2352 10.5635 31.5812 10.5635C32.8499 10.5635 33.9139 10.9297 33.9139 12.6143V13.3467C33.5546 13.9382 32.8499 14.2491 30.4038 14.502C28.2121 14.748 26.6118 15.5661 26.6118 18.0674C26.6118 20.5687 28.2397 21.2665 30.4315 21.2665C32.3689 21.2665 33.6099 20.653 34.1378 19.8929C34.4474 20.7386 35.1245 21.2113 36.2453 21.2113C37.0067 21.2113 37.6825 20.9929 38.1344 20.5134L37.6839 18.8855V18.8868ZM33.9126 16.8568C33.9126 18.3507 32.7918 19.3581 30.9953 19.3581C29.7543 19.3581 29.2264 18.8509 29.2264 17.9844C29.2264 16.7227 30.0653 16.4975 31.2772 16.3289C32.8208 16.1313 33.6099 15.7374 33.9126 15.3989V16.8582V16.8568Z" fill="#6A7661"></path>
<path d="M46.9854 20.3738H43.9756C42.9612 20.3738 42.461 20.1486 42.461 19.3595C42.461 18.464 43.0815 18.0978 44.7094 18.0978H44.737C47.9652 18.0978 49.5434 15.8494 49.6 13.5167C49.6208 12.5369 49.4024 11.5502 48.9229 10.7335C49.0639 9.86701 49.4301 9.38748 49.987 9.38748C50.4942 9.38748 50.6075 9.58509 50.917 10.0356L52.6859 9.0489C52.2907 7.92816 51.4809 7.28003 50.2122 7.28003C48.8662 7.28003 47.9638 8.06911 47.4567 9.30318C46.7312 8.88031 45.8287 8.62603 44.708 8.62603C41.3886 8.62603 39.874 10.7901 39.874 13.3481C39.874 15.0327 40.5512 16.4422 41.7838 17.2811C40.6921 17.7039 39.9873 18.493 39.9873 19.839C39.9873 21.8055 41.4743 22.4813 43.5817 22.4813H46.5626C47.7676 22.4813 48.7543 22.9041 48.7543 24.0249C48.7543 25.2368 47.7109 25.7095 45.2096 25.7095C42.4333 25.7095 41.249 25.0959 40.4102 24.2792L39.1982 26.0757C40.2692 27.2876 42.2634 28.0131 45.323 28.0131C48.1919 28.0131 51.1437 27.3996 51.1437 24.1368C51.1437 21.5222 49.4798 20.3738 46.9854 20.3738ZM44.7384 10.5635C46.5639 10.5635 47.1844 12.0864 47.1844 13.4877C47.1844 14.8889 46.452 16.1589 44.7384 16.1589C42.9419 16.1589 42.2924 14.7853 42.2924 13.431C42.2924 12.0767 42.9405 10.5621 44.7384 10.5621V10.5635Z" fill="#6A7661"></path>
<path d="M62.8931 17.5339C62.0473 18.5206 60.758 19.1342 59.0941 19.1342C56.8747 19.1342 55.754 18.1834 55.3878 16.3856H57.6362C62.1883 16.3856 63.2814 14.4191 63.2814 12.418C63.2814 10.0079 61.4558 8.62601 58.5096 8.62601C54.9649 8.62601 52.8298 11.2973 52.8298 15.0879C52.8298 18.8786 54.9083 21.3246 58.7072 21.3246C60.5604 21.3246 62.3583 20.6834 63.309 19.6124L62.8931 17.5339ZM58.5939 10.5358C59.9399 10.5358 60.7856 11.2406 60.7856 12.4526C60.7856 13.8262 59.6303 14.5807 57.3819 14.5807H55.2745C55.3588 12.0573 56.4298 10.5358 58.5939 10.5358Z" fill="#6A7661"></path>
<path d="M70.169 17.1981L72.3594 8.93695H74.9173L77.1657 17.3115C77.2777 17.7896 77.391 18.3216 77.4186 18.6588C77.4476 18.294 77.5319 17.7882 77.6439 17.3115L79.6104 8.93695H82.196L78.9084 21.2997H76.2108L73.5976 12.056L70.8434 21.2997H68.3435L64.803 8.93695H67.6124L69.467 17.1705C69.5789 17.6749 69.7475 18.2097 69.8042 18.8841C69.8885 18.2097 70.0294 17.7025 70.1704 17.1981H70.169Z" fill="#6A7661"></path>
<path fill-rule="evenodd" clip-rule="evenodd" d="M96.3675 15.5813V14.3555C96.3675 14.3555 95.4084 14.3057 95.1265 13.5028C95.1265 13.4959 95.1265 13.489 95.1196 13.4821H95.1265C94.9648 12.6502 95.7677 12.1292 95.7677 12.1292L95.161 11.072C95.161 11.072 94.3015 11.5018 93.6603 10.9518C93.6533 10.9449 93.6464 10.938 93.6395 10.938L93.6464 10.9311C93.0895 10.2899 93.5262 9.4372 93.5262 9.4372L92.469 8.82363C92.469 8.82363 91.9411 9.62653 91.1092 9.47175C91.1023 9.47175 91.0954 9.46484 91.0885 9.46484C90.6863 9.32389 90.4749 9.01433 90.363 8.73933C90.2497 8.46432 90.2358 8.22525 90.2358 8.22525H89.017C89.017 8.22525 88.9603 9.18431 88.1643 9.46623C88.1574 9.46623 88.1505 9.47313 88.1436 9.47313C88.0731 9.48695 87.9957 9.49386 87.9322 9.49386C87.2205 9.49386 86.7838 8.82501 86.7838 8.82501L85.7266 9.43859C85.7266 9.43859 86.1633 10.2912 85.6064 10.9325V10.9394C85.5994 10.9394 85.5995 10.9463 85.5925 10.9532C85.3466 11.1646 85.0564 11.2351 84.8035 11.2351C84.4082 11.2351 84.0918 11.0734 84.0918 11.0734L83.4851 12.1306C83.4851 12.1306 84.288 12.6516 84.1263 13.4835V13.5111L84.1194 13.5042C83.8444 14.3071 82.8867 14.3569 82.8867 14.3569V15.5827C82.8867 15.5827 83.8458 15.6324 84.1194 16.4353H84.1263V16.456C84.1401 16.5334 84.147 16.6039 84.147 16.6744C84.147 17.3792 83.4851 17.8089 83.4851 17.8089L84.0918 18.8661C84.0918 18.8661 84.9513 18.4363 85.5925 18.9864C85.5995 18.9933 85.5994 19.0002 85.6064 19.0002C85.8247 19.2544 85.8883 19.5364 85.8883 19.7893C85.8883 20.1845 85.7266 20.5009 85.7266 20.5009L86.7838 21.1145C86.7838 21.1145 87.3048 20.3116 88.1436 20.4664C88.1505 20.4664 88.1574 20.4733 88.1643 20.4733C88.5595 20.6143 88.7779 20.9238 88.8898 21.1988C89.0031 21.4738 89.017 21.7129 89.017 21.7129H90.2358C90.2358 21.7129 90.2856 20.7538 91.0885 20.4719C91.0954 20.4719 91.1023 20.465 91.1092 20.465C91.1797 20.4512 91.2502 20.4443 91.3207 20.4443C92.0323 20.4443 92.469 21.1131 92.469 21.1131L93.5262 20.4996C93.5262 20.4996 93.0895 19.6469 93.6464 18.9988C93.651 18.9942 93.6557 18.9896 93.6603 18.985C93.9062 18.7735 94.1965 18.7031 94.4493 18.7031C94.8446 18.7031 95.161 18.8647 95.161 18.8647L95.7677 17.8076C95.7677 17.8076 94.9648 17.2866 95.1265 16.4547H95.1196C95.1265 16.4477 95.1265 16.4408 95.1265 16.4339C95.4084 15.631 96.3675 15.5813 96.3675 15.5813ZM89.6236 18.5773C87.6364 18.5773 86.0223 16.9632 86.0223 14.9691C86.0223 12.9749 87.6364 11.3609 89.6236 11.3609C91.6109 11.3609 93.2319 12.9749 93.2319 14.9691C93.2319 16.9632 91.6178 18.5773 89.6236 18.5773Z" fill="#80C34F"></path>
<path d="M100.352 11.4659H100.379C100.718 10.0328 101.616 8.62878 103.33 8.62878C104.735 8.62878 105.635 9.35844 106 10.681L103.808 12.2536C103.725 11.6911 103.471 10.9325 102.572 10.9325C101.251 10.9325 100.465 12.3655 100.465 15.906V21.0758H98.0203V8.90932H100.549L100.353 11.4659H100.352Z" fill="#6A7661"></path>
<path d="M118.139 18.8302C117.97 19.0485 117.688 19.2171 117.384 19.2171C116.82 19.2171 116.652 18.7169 116.397 17.7025C116.115 16.3842 115.588 15.4832 114.008 15.2289V15.1722C115.72 14.947 117.159 13.6576 117.159 11.5502C117.159 9.21748 115.467 8.62602 113.953 8.62602C112.297 8.62602 110.894 9.18984 110.161 10.2539V0H107.687V21.0786H110.161V16.3856H111.006C113.642 16.3856 113.98 17.7592 114.15 18.5497C114.546 20.0366 114.827 21.1919 116.765 21.1919C117.716 21.1919 118.195 20.91 118.561 20.4871L118.139 18.8316V18.8302ZM110.584 14.3348H110.161V13.6024C110.217 11.5792 111.62 10.7058 113.198 10.7058C114.319 10.7058 114.742 11.2973 114.742 12.143C114.742 13.8552 112.691 14.3348 110.584 14.3348Z" fill="#6A7661"></path>
<path d="M120.138 18.3216C121.487 18.9117 122.751 19.3332 124.212 19.3332C125.814 19.3332 126.657 18.6588 126.657 17.5906C126.657 15.0326 120.25 16.8886 120.25 12.1955C120.25 9.60993 122.161 8.62738 124.606 8.62738C126.938 8.62738 128.231 9.38606 128.989 10.6229L127.331 12.0836C127.021 11.072 126.347 10.5939 124.915 10.5939C123.539 10.5939 122.667 10.9863 122.667 12.1112C122.667 14.5559 129.072 12.758 129.072 17.5353C129.072 20.4567 126.882 21.2997 124.492 21.2997C122.75 21.2997 121.036 20.9349 119.715 20.2038L120.137 18.3216H120.138Z" fill="#6A7661"></path>
<path d="M90.1724 28.5977C90.1724 30.3928 91.014 31.3353 92.4415 31.3353C93.3259 31.3353 93.9644 31.0755 94.5503 30.4108L95.0188 30.9055C94.39 31.6448 93.5498 32 92.3558 32C90.3644 32 89.2893 30.748 89.2893 28.617C89.2893 26.4391 90.4612 25.2147 92.3144 25.2147C93.4434 25.2147 94.4121 25.6362 94.9027 26.6644L94.0611 27.0955C93.8801 26.4322 93.4116 25.8421 92.3365 25.8421C90.9297 25.8421 90.1737 26.9352 90.1737 28.5991L90.1724 28.5977Z" fill="#6A7661"></path>
<path d="M101.034 31.1211C100.921 31.2689 100.752 31.3187 100.632 31.3187C100.316 31.3187 100.216 31.0299 100.125 30.5503C99.9841 29.8663 99.6952 28.7953 98.5538 28.7953V28.7746C99.1742 28.7538 100.034 28.4498 100.034 27.1107C100.034 25.9057 99.1038 25.3349 97.6514 25.3349H96.0234V31.8756H96.8415V29.0993H97.5256C99.1038 29.0993 99.2737 30.1703 99.4078 30.9041C99.5349 31.5177 99.7104 31.9475 100.401 31.9475C100.718 31.9475 100.993 31.8701 101.22 31.6517L101.036 31.1238L101.034 31.1211ZM96.8402 28.4857V25.9485H97.6085C98.9476 25.9485 99.1729 26.5123 99.1729 27.1964C99.1729 27.915 98.9407 28.4857 97.5878 28.4857H96.8402Z" fill="#6A7661"></path>
<path d="M102.912 28.7759V31.2607H105.841V31.8784H102.092V25.3349H105.841V25.9527H102.912V28.1582H105.363V28.7759H102.912Z" fill="#6A7661"></path>
<path d="M109.624 25.2161H108.758L106.334 31.8756H107.207L107.778 30.227H110.547L111.104 31.8756H112L109.624 25.2161ZM107.99 29.6065L109.004 26.6823C109.109 26.3866 109.131 26.3023 109.195 26.0757C109.251 26.3009 109.279 26.3852 109.385 26.6823L110.351 29.6065H107.991H107.99Z" fill="#6A7661"></path>
<path d="M116.28 25.9527H114.384V31.877H113.553V25.9527H111.668V25.3363H116.28V25.9527Z" fill="#6A7661"></path>
<path d="M118.006 25.3349H117.186V31.8784H118.006V25.3349Z" fill="#6A7661"></path>
<path d="M121.766 30.6637L123.481 25.3363H124.343L122.064 32H121.18L118.976 25.3363H119.849L121.49 30.6637C121.564 30.9069 121.585 31.0092 121.628 31.1598C121.671 31.0105 121.691 30.8986 121.766 30.6637Z" fill="#6A7661"></path>
<path d="M126.144 28.7759V31.2607H129.072V31.8784H125.323V25.3349H129.072V25.9527H126.144V28.1582H128.594V28.7759H126.144Z" fill="#6A7661"></path>
</svg>